HIERARCHY
ROOT Hips
{
	OFFSET 0.053599 88.859886 3.107447
	CHANNELS 6 Xposition Yposition Zposition Zrotation Yrotation Xrotation 
	JOINT Spine
	{
		OFFSET -0.000000 8.814246 -2.080107
		CHANNELS 3 Zrotation Yrotation Xrotation
		JOINT Spine1
		{
			OFFSET 0.000000 8.844141 0.000000
			CHANNELS 3 Zrotation Yrotation Xrotation
			JOINT Spine2
			{
				OFFSET -0.000000 11.682268 0.000000
				CHANNELS 3 Zrotation Yrotation Xrotation
				JOINT Spine3
				{
					OFFSET 0.000000 11.746700 0.000000
					CHANNELS 3 Zrotation Yrotation Xrotation
					JOINT Neck
					{
						OFFSET -0.000000 17.658264 -0.000000
						CHANNELS 3 Zrotation Yrotation Xrotation
						JOINT Neck1
						{
							OFFSET -0.000000 5.101515 -0.000000
							CHANNELS 3 Zrotation Yrotation Xrotation
							JOINT Head
							{
								OFFSET 0.000000 5.101515 0.000000
								CHANNELS 3 Zrotation Yrotation Xrotation
								JOINT HeadEnd
								{
									OFFSET 0.000000 11.655085 0.000000
									CHANNELS 3 Zrotation Yrotation Xrotation
									End Site
									{
										OFFSET 0.000000 0.000000 0.000000
									}
								}
							}
						}
					}
					JOINT RightShoulder
					{
						OFFSET -2.625389 11.175210 0.000000
						CHANNELS 3 Zrotation Yrotation Xrotation
						JOINT RightArm
						{
							OFFSET -0.000000 10.434715 -0.000000
							CHANNELS 3 Zrotation Yrotation Xrotation
							JOINT RightForeArm
							{
								OFFSET -0.000000 29.628420 0.000000
								CHANNELS 3 Zrotation Yrotation Xrotation
								JOINT RightHand
								{
									OFFSET -0.000000 22.857611 0.000000
									CHANNELS 3 Zrotation Yrotation Xrotation
									JOINT RightHandThumb1
									{
										OFFSET -2.867323 3.959563 2.944291
										CHANNELS 3 Zrotation Yrotation Xrotation
										JOINT RightHandThumb2
										{
											OFFSET 0.000000 3.350399 0.000000
											CHANNELS 3 Zrotation Yrotation Xrotation
											JOINT RightHandThumb3
											{
												OFFSET 0.000000 3.756509 -0.000000
												CHANNELS 3 Zrotation Yrotation Xrotation
												JOINT RightHandThumb4
												{
													OFFSET 0.000000 3.147345 0.000000
													CHANNELS 3 Zrotation Yrotation Xrotation
													End Site
													{
														OFFSET 0.000000 0.000000 0.000000
													}
												}
											}
										}
									}
									JOINT RightHandIndex1
									{
										OFFSET -0.086752 10.030893 2.345280
										CHANNELS 3 Zrotation Yrotation Xrotation
										JOINT RightHandIndex2
										{
											OFFSET -0.000000 4.061090 0.000000
											CHANNELS 3 Zrotation Yrotation Xrotation
											JOINT RightHandIndex3
											{
												OFFSET -0.000000 3.248873 0.000000
												CHANNELS 3 Zrotation Yrotation Xrotation
												JOINT RightHandIndex4
												{
													OFFSET 0.000000 2.639709 -0.000000
													CHANNELS 3 Zrotation Yrotation Xrotation
													End Site
													{
														OFFSET 0.000000 0.000000 0.000000
													}
												}
											}
										}
									}
									JOINT RightHandMiddle1
									{
										OFFSET 0.104102 9.502952 0.006768
										CHANNELS 3 Zrotation Yrotation Xrotation
										JOINT RightHandMiddle2
										{
											OFFSET 0.000000 4.568727 0.000000
											CHANNELS 3 Zrotation Yrotation Xrotation
											JOINT RightHandMiddle3
											{
												OFFSET 0.000000 3.654981 -0.000000
												CHANNELS 3 Zrotation Yrotation Xrotation
												JOINT RightHandMiddle4
												{
													OFFSET -0.000000 2.741236 -0.000000
													CHANNELS 3 Zrotation Yrotation Xrotation
													End Site
													{
														OFFSET 0.000000 0.000000 0.000000
													}
												}
											}
										}
									}
									JOINT RightHandRing1
									{
										OFFSET 0.086752 8.921708 -2.267442
										CHANNELS 3 Zrotation Yrotation Xrotation
										JOINT RightHandRing2
										{
											OFFSET -0.000000 4.061090 0.000000
											CHANNELS 3 Zrotation Yrotation Xrotation
											JOINT RightHandRing3
											{
												OFFSET 0.000000 3.654981 -0.000000
												CHANNELS 3 Zrotation Yrotation Xrotation
												JOINT RightHandRing4
												{
													OFFSET 0.000000 2.741236 -0.000000
													CHANNELS 3 Zrotation Yrotation Xrotation
													End Site
													{
														OFFSET 0.000000 0.000000 0.000000
													}
												}
											}
										}
									}
									JOINT RightHandPinky1
									{
										OFFSET -0.173504 7.976997 -4.467199
										CHANNELS 3 Zrotation Yrotation Xrotation
										JOINT RightHandPinky2
										{
											OFFSET 0.000000 3.350399 -0.000000
											CHANNELS 3 Zrotation Yrotation Xrotation
											JOINT RightHandPinky3
											{
												OFFSET -0.000000 2.842763 0.000000
												CHANNELS 3 Zrotation Yrotation Xrotation
												JOINT RightHandPinky4
												{
													OFFSET -0.000000 2.639709 0.000000
													CHANNELS 3 Zrotation Yrotation Xrotation
													End Site
													{
														OFFSET 0.000000 0.000000 0.000000
													}
												}
											}
										}
									}
									JOINT RightForeArmEnd
									{
										OFFSET 0.000000 0.000000 0.000000
										CHANNELS 3 Zrotation Yrotation Xrotation
										End Site
										{
											OFFSET 0.000000 0.000000 0.000000
										}
									}
								}
								JOINT RightArmEnd
								{
									OFFSET 0.000000 0.000000 0.000000
									CHANNELS 3 Zrotation Yrotation Xrotation
									End Site
									{
										OFFSET 0.000000 0.000000 0.000000
									}
								}
							}
						}
					}
					JOINT LeftShoulder
					{
						OFFSET 2.625389 11.175210 0.000000
						CHANNELS 3 Zrotation Yrotation Xrotation
						JOINT LeftArm
						{
							OFFSET 0.000000 10.813635 -0.000000
							CHANNELS 3 Zrotation Yrotation Xrotation
							JOINT LeftForeArm
							{
								OFFSET 0.000000 28.724781 0.000000
								CHANNELS 3 Zrotation Yrotation Xrotation
								JOINT LeftHand
								{
									OFFSET 0.644384 25.716167 -0.328871
									CHANNELS 3 Zrotation Yrotation Xrotation
									JOINT LeftHandThumb1
									{
										OFFSET 2.867323 3.959563 2.944291
										CHANNELS 3 Zrotation Yrotation Xrotation
										JOINT LeftHandThumb2
										{
											OFFSET 0.000000 3.350399 0.000000
											CHANNELS 3 Zrotation Yrotation Xrotation
											JOINT LeftHandThumb3
											{
												OFFSET -0.000000 3.756509 0.000000
												CHANNELS 3 Zrotation Yrotation Xrotation
												JOINT LeftHandThumb4
												{
													OFFSET -0.000000 3.100000 0.000000
													CHANNELS 3 Zrotation Yrotation Xrotation
													End Site
													{
														OFFSET 0.000000 0.000000 0.000000
													}
												}
											}
										}
									}
									JOINT LeftHandIndex1
									{
										OFFSET 0.086752 10.030893 2.345280
										CHANNELS 3 Zrotation Yrotation Xrotation
										JOINT LeftHandIndex2
										{
											OFFSET -0.000000 4.061090 -0.000000
											CHANNELS 3 Zrotation Yrotation Xrotation
											JOINT LeftHandIndex3
											{
												OFFSET 0.000000 3.248873 -0.000000
												CHANNELS 3 Zrotation Yrotation Xrotation
												JOINT LeftHandIndex4
												{
													OFFSET 0.000000 2.639709 -0.000000
													CHANNELS 3 Zrotation Yrotation Xrotation
													End Site
													{
														OFFSET 0.000000 0.000000 0.000000
													}
												}
											}
										}
									}
									JOINT LeftHandMiddle1
									{
										OFFSET -0.104102 9.502952 0.006768
										CHANNELS 3 Zrotation Yrotation Xrotation
										JOINT LeftHandMiddle2
										{
											OFFSET -0.000000 4.568727 -0.000000
											CHANNELS 3 Zrotation Yrotation Xrotation
											JOINT LeftHandMiddle3
											{
												OFFSET 0.000000 3.654981 0.000000
												CHANNELS 3 Zrotation Yrotation Xrotation
												JOINT LeftHandMiddle4
												{
													OFFSET 0.000000 2.741236 -0.000000
													CHANNELS 3 Zrotation Yrotation Xrotation
													End Site
													{
														OFFSET 0.000000 0.000000 0.000000
													}
												}
											}
										}
									}
									JOINT LeftHandRing1
									{
										OFFSET -0.086752 8.921708 -2.267442
										CHANNELS 3 Zrotation Yrotation Xrotation
										JOINT LeftHandRing2
										{
											OFFSET 0.000000 4.061090 0.000000
											CHANNELS 3 Zrotation Yrotation Xrotation
											JOINT LeftHandRing3
											{
												OFFSET 0.000000 3.654981 0.000000
												CHANNELS 3 Zrotation Yrotation Xrotation
												JOINT LeftHandRing4
												{
													OFFSET 0.000000 2.741236 0.000000
													CHANNELS 3 Zrotation Yrotation Xrotation
													End Site
													{
														OFFSET 0.000000 0.000000 0.000000
													}
												}
											}
										}
									}
									JOINT LeftHandPinky1
									{
										OFFSET 0.173504 7.976997 -4.467199
										CHANNELS 3 Zrotation Yrotation Xrotation
										JOINT LeftHandPinky2
										{
											OFFSET -0.000000 3.350399 -0.000000
											CHANNELS 3 Zrotation Yrotation Xrotation
											JOINT LeftHandPinky3
											{
												OFFSET 0.000000 2.842763 0.000000
												CHANNELS 3 Zrotation Yrotation Xrotation
												JOINT LeftHandPinky4
												{
													OFFSET -0.000000 2.639709 -0.000000
													CHANNELS 3 Zrotation Yrotation Xrotation
													End Site
													{
														OFFSET 0.000000 0.000000 0.000000
													}
												}
											}
										}
									}
									JOINT LeftForeArmEnd
									{
										OFFSET 0.000000 0.000000 0.000000
										CHANNELS 3 Zrotation Yrotation Xrotation
										End Site
										{
											OFFSET 0.000000 0.000000 0.000000
										}
									}
								}
								JOINT LeftArmEnd
								{
									OFFSET 0.000000 0.000000 0.000000
									CHANNELS 3 Zrotation Yrotation Xrotation
									End Site
									{
										OFFSET 0.000000 0.000000 0.000000
									}
								}
							}
						}
					}
				}
			}
		}
	}
	JOINT RightUpLeg
	{
		OFFSET -11.289943 0.000000 0.000000
		CHANNELS 3 Zrotation Yrotation Xrotation
		JOINT RightLeg
		{
			OFFSET 0.000000 -38.200325 0.000000
			CHANNELS 3 Zrotation Yrotation Xrotation
			JOINT RightFoot
			{
				OFFSET -0.000000 -39.900856 -0.000000
				CHANNELS 3 Zrotation Yrotation Xrotation
				JOINT RightToeBase
				{
					OFFSET 0.000000 0.000000 15.261641
					CHANNELS 3 Zrotation Yrotation Xrotation
					JOINT RightToeBaseEnd
					{
						OFFSET 0.000000 0.000000 7.370709
						CHANNELS 3 Zrotation Yrotation Xrotation
						End Site
						{
							OFFSET 0.000000 0.000000 0.000000
						}
					}
				}
				JOINT RightLegEnd
				{
					OFFSET 0.000000 0.000000 0.000000
					CHANNELS 3 Zrotation Yrotation Xrotation
					End Site
					{
						OFFSET 0.000000 0.000000 0.000000
					}
				}
			}
			JOINT RightUpLegEnd
			{
				OFFSET 0.000000 0.000000 0.000000
				CHANNELS 3 Zrotation Yrotation Xrotation
				End Site
				{
					OFFSET 0.000000 0.000000 0.000000
				}
			}
		}
	}
	JOINT LeftUpLeg
	{
		OFFSET 11.315661 -0.000000 0.000000
		CHANNELS 3 Zrotation Yrotation Xrotation
		JOINT LeftLeg
		{
			OFFSET -0.000000 -38.200325 -0.000000
			CHANNELS 3 Zrotation Yrotation Xrotation
			JOINT LeftFoot
			{
				OFFSET 0.000000 -39.900856 -0.000000
				CHANNELS 3 Zrotation Yrotation Xrotation
				JOINT LeftToeBase
				{
					OFFSET -0.000000 -0.000000 15.261641
					CHANNELS 3 Zrotation Yrotation Xrotation
					JOINT LeftToeBaseEnd
					{
						OFFSET 0.000000 -0.000000 7.539996
						CHANNELS 3 Zrotation Yrotation Xrotation
						End Site
						{
							OFFSET 0.000000 0.000000 0.000000
						}
					}
				}
				JOINT LeftLegEnd
				{
					OFFSET 0.000000 0.000000 0.000000
					CHANNELS 3 Zrotation Yrotation Xrotation
					End Site
					{
						OFFSET 0.000000 0.000000 0.000000
					}
				}
			}
			JOINT LeftUpLegEnd
			{
				OFFSET 0.000000 0.000000 0.000000
				CHANNELS 3 Zrotation Yrotation Xrotation
				End Site
				{
					OFFSET 0.000000 0.000000 0.000000
				}
			}
		}
	}
}
MOTION
Frames: 4
Frame Time: 0.016667
0.435703 88.728378 2.815853 0.186195 -0.865795 -9.778118 1.053133 0.037043 6.785569 -1.025233 0.323459 2.768205 0.588279 -0.594480 3.987541 -1.410143 0.370370 4.758638 1.311927 -0.217191 4.732100 0.033469 0.063332 -3.292393 -0.076682 -0.603572 -20.586401 0.000000 0.000000 0.000000 91.227058 0.106339 9.096187 70.495056 -21.154335 -1.947215 -0.354184 16.636255 49.147141 -10.989196 2.742542 -5.993157 16.075151 31.412775 65.859985 -4.077127 -4.980468 -9.089613 -2.933745 -3.226735 -6.093551 0.000000 0.000000 0.000000 -16.546867 -6.048026 11.885127 0.910122 0.494716 0.462583 0.649162 0.058605 0.500793 0.000000 0.000000 0.000000 -16.158133 -0.695833 6.780110 -0.045888 0.499320 0.147525 0.293880 0.009086 0.134895 0.000000 0.000000 0.000000 -15.710464 7.126756 0.392902 -0.000945 -0.985799 -0.354782 0.068580 -0.010523 -0.236501 0.000000 0.000000 0.000000 -15.793029 15.197409 -6.043362 -0.052566 -1.896243 -1.107558 -0.032735 0.066748 -0.907745 0.000000 0.000000 0.000000 0.000000 0.000000 0.000000 0.000000 0.000000 0.000000 -88.491821 -0.026763 4.271952 -70.857758 12.903602 -8.227592 0.364439 -12.222860 66.447952 10.657232 1.946725 -9.486795 -15.175998 -31.750916 66.854408 2.904320 3.059288 -5.930468 1.997284 2.112686 -4.199654 0.000000 0.000000 0.000000 17.771114 -12.115664 17.205765 -0.771046 0.552023 -0.279973 -0.793457 0.072168 -0.343078 0.000000 0.000000 0.000000 17.358246 -6.609202 10.643638 -0.836424 0.515546 -0.156641 -1.136210 0.017538 -0.129393 0.000000 0.000000 0.000000 14.585630 2.029033 2.374279 -2.492225 -0.997062 0.378316 -2.563992 -0.012777 0.287780 0.000000 0.000000 0.000000 9.733202 11.935379 -6.051543 -4.343615 -1.880066 1.570184 -4.028090 0.143255 1.347893 0.000000 0.000000 0.000000 0.000000 0.000000 0.000000 0.000000 0.000000 0.000000 -0.749257 -8.507082 13.538052 -0.076481 -0.655860 6.087253 -2.797140 -8.213867 17.042770 -0.847213 0.786304 -18.938713 0.000000 0.000000 0.000000 0.000000 0.000000 0.000000 0.000000 0.000000 0.000000 -1.920873 -6.232235 8.211157 0.073629 0.325985 10.790763 3.836797 -1.064019 16.890656 0.257793 -0.460900 -20.821199 0.000000 0.000000 0.000000 0.000000 0.000000 0.000000 0.000000 0.000000 0.000000 
0.424541 88.720436 2.787670 0.208607 -0.853995 -9.811130 1.034656 0.039842 6.802609 -1.079717 0.341689 2.856173 0.583104 -0.620799 4.001254 -1.448200 0.353197 4.843217 1.474503 -0.368297 4.759743 0.068492 -0.024711 -3.278349 -0.034032 -0.617627 -20.619965 0.000000 0.000000 0.000000 91.158592 0.128816 9.013761 70.726418 -21.020313 -2.585541 -0.392036 16.654001 51.755470 -12.068782 0.836301 -5.626593 15.918861 31.476139 66.036293 -3.861957 -4.660353 -8.579360 -2.775107 -3.021264 -5.730119 0.000000 0.000000 0.000000 -18.017586 -5.768369 12.276104 0.759325 0.503348 0.411375 0.489538 0.068715 0.457375 0.000000 0.000000 0.000000 -17.640238 -0.435579 6.979978 -0.169338 0.503725 0.126213 0.164198 0.013358 0.117710 0.000000 0.000000 0.000000 -17.305157 7.375775 0.276469 -0.127152 -0.990981 -0.328245 -0.063249 -0.015323 -0.215271 0.000000 0.000000 0.000000 -17.401857 15.398531 -6.407241 -0.180329 -1.909270 -1.028858 -0.159959 0.050607 -0.839014 0.000000 0.000000 0.000000 0.000000 0.000000 0.000000 0.000000 0.000000 0.000000 -88.484978 -0.035291 4.200942 -70.716202 12.704627 -8.420719 0.420517 -12.190982 68.044151 11.707635 3.894815 -8.854711 -14.971697 -31.832386 67.081764 2.631274 2.655668 -5.263990 1.791524 1.842367 -3.725510 0.000000 0.000000 0.000000 19.509111 -12.368459 17.782103 -0.696330 0.563759 -0.235101 -0.726385 0.084721 -0.299557 0.000000 0.000000 0.000000 19.107725 -6.880146 11.048274 -0.760824 0.520189 -0.138206 -1.075995 0.021958 -0.114374 0.000000 0.000000 0.000000 16.465322 1.698129 2.473296 -2.375530 -1.004506 0.350509 -2.435491 -0.019567 0.267915 0.000000 0.000000 0.000000 11.585158 11.609321 -6.202215 -4.184413 -1.896953 1.483069 -3.868232 0.123499 1.272654 0.000000 0.000000 0.000000 0.000000 0.000000 0.000000 0.000000 0.000000 0.000000 -0.768159 -8.503927 13.548358 -0.077796 -0.659124 6.107293 -2.810140 -8.215592 16.988544 -0.845610 0.793576 -18.939220 0.000000 0.000000 0.000000 0.000000 0.000000 0.000000 0.000000 0.000000 0.000000 -1.949277 -6.263724 8.185925 0.073153 0.323670 10.821686 3.839574 -1.080900 16.880598 0.250575 -0.455406 -20.847305 0.000000 0.000000 0.000000 0.000000 0.000000 0.000000 0.000000 0.000000 0.000000 
0.414114 88.713730 2.762040 0.225489 -0.846405 -9.845515 1.015016 0.042331 6.819654 -1.134683 0.358966 2.941040 0.581412 -0.652161 4.020548 -1.482778 0.335388 4.926307 1.644390 -0.503914 4.787429 0.103556 -0.099297 -3.268316 0.002638 -0.631335 -20.651560 0.000000 0.000000 0.000000 91.099716 0.147755 8.941822 70.883812 -20.926243 -3.110416 -0.423856 16.718481 54.165146 -13.107759 -0.957411 -5.136039 15.806778 31.525112 66.168884 -3.697183 -4.424748 -8.200841 -2.656186 -2.871742 -5.462398 0.000000 0.000000 0.000000 -19.152018 -5.552561 12.610689 0.664340 0.514294 0.361616 0.387265 0.081067 0.416061 0.000000 0.000000 0.000000 -18.788296 -0.233825 7.161794 -0.236886 0.509459 0.106083 0.091697 0.018446 0.101684 0.000000 0.000000 0.000000 -18.548925 7.571088 0.204352 -0.189747 -0.998066 -0.301903 -0.132704 -0.021133 -0.194322 0.000000 0.000000 0.000000 -18.659544 15.560075 -6.675905 -0.236402 -1.927446 -0.949375 -0.219790 0.030414 -0.769497 0.000000 0.000000 0.000000 0.000000 0.000000 0.000000 0.000000 0.000000 0.000000 -88.489113 -0.042896 4.147814 -70.581833 12.540150 -8.622137 0.467386 -12.182642 69.636261 12.787990 5.615644 -8.056868 -14.825198 -31.891722 67.246155 2.435181 2.364076 -4.785881 1.643127 1.646449 -3.382951 0.000000 0.000000 0.000000 20.797907 -12.548390 18.237810 -0.634149 0.575318 -0.191910 -0.670292 0.097280 -0.257151 0.000000 0.000000 0.000000 20.407141 -7.076355 11.372808 -0.703506 0.524805 -0.121071 -1.032659 0.026346 -0.100379 0.000000 0.000000 0.000000 17.863895 1.448295 2.554889 -2.302546 -1.012582 0.324822 -2.349855 -0.026618 0.249834 0.000000 0.000000 0.000000 12.971478 11.358400 -6.317876 -4.088339 -1.915601 1.403387 -3.768940 0.102271 1.204113 0.000000 0.000000 0.000000 0.000000 0.000000 0.000000 0.000000 0.000000 0.000000 -0.786129 -8.507421 13.562112 -0.079068 -0.663257 6.112183 -2.821663 -8.212812 16.942177 -0.845769 0.800604 -18.935097 0.000000 0.000000 0.000000 0.000000 0.000000 0.000000 0.000000 0.000000 0.000000 -1.973215 -6.291003 8.171340 0.072312 0.320001 10.848314 3.840746 -1.074926 16.860701 0.244196 -0.448865 -20.865561 0.000000 0.000000 0.000000 0.000000 0.000000 0.000000 0.000000 0.000000 0.000000 
0.404926 88.707329 2.739798 0.237088 -0.846076 -9.884840 0.994927 0.043893 6.840883 -1.184897 0.373519 3.019141 0.578527 -0.682732 4.049942 -1.511504 0.318276 5.007913 1.816504 -0.625915 4.813483 0.136361 -0.166261 -3.258673 0.034170 -0.643315 -20.676722 0.000000 0.000000 0.000000 91.047417 0.162168 8.885939 70.968323 -20.855095 -3.507646 -0.451720 16.809044 56.354610 -14.144572 -2.613473 -4.561222 15.728301 31.562399 66.267433 -3.572892 -4.255042 -7.923872 -2.568696 -2.765517 -5.268114 0.000000 0.000000 0.000000 -20.026297 -5.384887 12.897753 0.600368 0.526040 0.314366 0.317573 0.094179 0.377380 0.000000 0.000000 0.000000 -19.675596 -0.077188 7.326695 -0.275261 0.515749 0.087564 0.049814 0.023793 0.086996 0.000000 0.000000 0.000000 -19.513779 7.722939 0.161685 -0.222684 -1.005902 -0.277287 -0.171563 -0.027213 -0.174674 0.000000 0.000000 0.000000 -19.634932 15.687267 -6.876703 -0.260251 -1.947089 -0.874312 -0.248514 0.009266 -0.704121 0.000000 0.000000 0.000000 0.000000 0.000000 0.000000 0.000000 0.000000 0.000000 -88.496323 -0.049737 4.112250 -70.467110 12.379909 -8.816452 0.500892 -12.209588 71.186668 13.886823 7.076474 -7.148116 -14.725594 -31.933516 67.361206 2.299683 2.162629 -4.456821 1.540367 1.510665 -3.145103 0.000000 0.000000 0.000000 21.732304 -12.672996 18.602833 -0.576596 0.585883 -0.151412 -0.617113 0.108761 -0.216864 0.000000 0.000000 0.000000 21.347137 -7.215016 11.636788 -0.653866 0.529077 -0.105413 -0.995039 0.030453 -0.087578 0.000000 0.000000 0.000000 18.867880 1.265404 2.622178 -2.249778 -1.020357 0.301745 -2.285161 -0.033259 0.233663 0.000000 0.000000 0.000000 13.959418 11.173486 -6.409994 -4.026505 -1.933483 1.332789 -3.702641 0.082081 1.143600 0.000000 0.000000 0.000000 0.000000 0.000000 0.000000 0.000000 0.000000 0.000000 -0.804044 -8.519932 13.585175 -0.080148 -0.667998 6.104283 -2.831639 -8.200248 16.899414 -0.847148 0.807791 -18.923483 0.000000 0.000000 0.000000 0.000000 0.000000 0.000000 0.000000 0.000000 0.000000 -1.988549 -6.304643 8.171452 0.071363 0.315599 10.873221 3.839580 -1.054477 16.830193 0.238643 -0.442510 -20.874861 0.000000 0.000000 0.000000 0.000000 0.000000 0.000000 0.000000 0.000000 0.000000 
